<?xml version="1.0" encoding="utf-8"?>
<!-- Generator: Adobe Illustrator 27.5.0, SVG Export Plug-In . SVG Version: 6.00 Build 0)  -->
<svg version="1.1" xmlns="http://www.w3.org/2000/svg" xmlns:xlink="http://www.w3.org/1999/xlink" x="0px" y="0px"
	 viewBox="0 0 1200 1200" style="enable-background:new 0 0 1200 1200;" xml:space="preserve">
<g id="background">
	<rect style="fill:#FFF8DC;" width="1200" height="1200"/>
</g>
<g id="shadow">
	<path style="fill:#CFD0D2;" d="M167.052,402.595c1.266,1.207,3.606,4.073,4.911,5.669c1.574,1.927,3.061,3.747,4.7,5.507
		l-0.001-0.001c11.767,12.638,22.337,24.064,32.546,35.922c1.622,1.884,3.452,3.547,5.444,4.965l-13.154,518.581
		c-0.429,16.894,12.919,30.938,29.814,31.366l701.654,17.799c0.26,0.007,0.518,0.01,0.777,0.01c7.836,0,15.387-3.009,21.081-8.42
		c5.882-5.592,9.302-13.29,9.508-21.404l15.161-597.693l23.656,6.735c8.582,2.442,17.804,1.019,25.249-3.901
		c7.445-4.92,12.371-12.844,13.489-21.697c0.486-3.851,2.387-9.102,4.398-14.66c1.546-4.271,3.297-9.111,4.753-14.262
		c1.576-5.581,2.649-10.985,3.595-15.753c0.749-3.775,1.457-7.341,2.298-10.443c0.171-0.629,0.345-1.295,0.524-1.986
		c0.223-0.861,0.545-2.1,0.757-2.773c3.949-7.979,4.233-17.302,0.742-25.526c-3.615-8.518-10.889-14.942-19.789-17.475
		L817.743,210.11c-9.47-2.696-19.662-0.669-27.381,5.446c-7.379,5.846-11.637,14.746-11.598,24.112
		c-0.34,1.715-1.505,5.227-2.154,7.184c-0.783,2.361-1.523,4.592-2.13,6.917c-0.112,0.429-0.224,0.856-0.334,1.279l-357.843-9.077
		c-1.024-1.289-2.071-2.643-3.137-4.021c-2.774-3.587-5.918-7.652-9.479-11.632c-3.868-4.324-7.857-8.127-11.376-11.482
		c-2.785-2.655-5.415-5.163-7.581-7.534c-0.439-0.482-0.909-0.986-1.397-1.509c-0.607-0.65-1.48-1.586-1.935-2.125
		c-4.62-7.61-12.339-12.847-21.152-14.307c-9.127-1.512-18.45,1.185-25.359,7.34l-47.153,42.009l-37.074-0.94
		c-8.127-0.207-15.976,2.819-21.858,8.411c-5.882,5.591-9.302,13.29-9.508,21.404l-0.833,32.841l-55.473,49.421
		c-7.353,6.551-11.104,16.241-10.078,26.035C153.892,389.244,159.123,397.609,167.052,402.595z"/>
</g>
<g id="object">
	<g>
		<path style="fill:#FFFFFF;" d="M159.986,394.915c1.266,1.207,3.606,4.073,4.911,5.669c1.574,1.927,3.061,3.747,4.7,5.507
			l-0.001-0.001c11.767,12.638,22.337,24.064,32.546,35.922c1.622,1.884,3.452,3.547,5.444,4.965l-13.154,518.581
			c-0.429,16.894,12.919,30.938,29.814,31.366l701.654,17.799c0.259,0.007,0.518,0.01,0.777,0.01c7.836,0,15.387-3.009,21.081-8.421
			c5.882-5.592,9.303-13.29,9.508-21.404l15.161-597.693l23.656,6.735c8.582,2.442,17.804,1.019,25.249-3.901
			s12.371-12.844,13.489-21.697c0.486-3.851,2.387-9.102,4.398-14.66c1.546-4.271,3.297-9.111,4.753-14.262
			c1.576-5.581,2.649-10.985,3.595-15.753c0.749-3.775,1.457-7.341,2.298-10.443c0.171-0.629,0.345-1.295,0.524-1.986
			c0.223-0.861,0.545-2.1,0.757-2.773c3.949-7.979,4.233-17.302,0.742-25.526c-3.615-8.518-10.889-14.942-19.789-17.475
			L810.678,202.43c-9.47-2.696-19.662-0.669-27.381,5.446c-7.379,5.846-11.637,14.746-11.598,24.112
			c-0.34,1.715-1.505,5.227-2.154,7.184c-0.783,2.361-1.523,4.592-2.13,6.917c-0.112,0.429-0.224,0.856-0.334,1.279l-357.843-9.077
			c-1.024-1.289-2.071-2.643-3.137-4.021c-2.774-3.587-5.918-7.653-9.479-11.632c-3.868-4.324-7.857-8.127-11.376-11.482
			c-2.785-2.655-5.415-5.163-7.581-7.534c-0.439-0.482-0.909-0.986-1.397-1.509c-0.607-0.65-1.48-1.586-1.935-2.125
			c-4.62-7.61-12.339-12.847-21.152-14.307c-9.127-1.512-18.45,1.185-25.359,7.34l-47.153,42.009l-37.074-0.94
			c-8.127-0.207-15.976,2.819-21.858,8.411c-5.882,5.591-9.303,13.29-9.508,21.404l-0.833,32.841l-55.473,49.421
			c-7.353,6.551-11.104,16.241-10.079,26.035C146.826,381.564,152.057,389.928,159.986,394.915z"/>
		<path style="fill:#FFFFFF;" d="M159.986,394.915c1.266,1.207,3.606,4.073,4.911,5.669c1.574,1.927,3.061,3.747,4.7,5.507
			l-0.001-0.001c11.767,12.638,22.337,24.064,32.546,35.922c1.622,1.884,3.452,3.547,5.444,4.965l-13.154,518.581
			c-0.429,16.894,12.919,30.938,29.814,31.366l701.654,17.799c0.259,0.007,0.518,0.01,0.777,0.01c7.836,0,15.387-3.009,21.081-8.421
			c5.882-5.592,9.303-13.29,9.508-21.404l15.161-597.693l23.656,6.735c8.582,2.442,17.804,1.019,25.249-3.901
			s12.371-12.844,13.489-21.697c0.486-3.851,2.387-9.102,4.398-14.66c1.546-4.271,3.297-9.111,4.753-14.262
			c1.576-5.581,2.649-10.985,3.595-15.753c0.749-3.775,1.457-7.341,2.298-10.443c0.171-0.629,0.345-1.295,0.524-1.986
			c0.223-0.861,0.545-2.1,0.757-2.773c3.949-7.979,4.233-17.302,0.742-25.526c-3.615-8.518-10.889-14.942-19.789-17.475
			L810.678,202.43c-9.47-2.696-19.662-0.669-27.381,5.446c-7.379,5.846-11.637,14.746-11.598,24.112
			c-0.34,1.715-1.505,5.227-2.154,7.184c-0.783,2.361-1.523,4.592-2.13,6.917c-0.112,0.429-0.224,0.856-0.334,1.279l-357.843-9.077
			c-1.024-1.289-2.071-2.643-3.137-4.021c-2.774-3.587-5.918-7.653-9.479-11.632c-3.868-4.324-7.857-8.127-11.376-11.482
			c-2.785-2.655-5.415-5.163-7.581-7.534c-0.439-0.482-0.909-0.986-1.397-1.509c-0.607-0.65-1.48-1.586-1.935-2.125
			c-4.62-7.61-12.339-12.847-21.152-14.307c-9.127-1.512-18.45,1.185-25.359,7.34l-47.153,42.009l-37.074-0.94
			c-8.127-0.207-15.976,2.819-21.858,8.411c-5.882,5.591-9.303,13.29-9.508,21.404l-0.833,32.841l-55.473,49.421
			c-7.353,6.551-11.104,16.241-10.079,26.035C146.826,381.564,152.057,389.928,159.986,394.915z"/>
		<g>
			<g>
				
					<rect x="231.679" y="271.567" transform="matrix(0.9997 0.0254 -0.0254 0.9997 16.0254 -14.6251)" style="fill:#F9C660;" width="705.961" height="705.961"/>
			</g>
			<g>
				<g>
					
						<rect x="589.731" y="97.114" transform="matrix(0.0254 -0.9997 0.9997 0.0254 162.494 992.0862)" style="fill:#759086;" width="0.603" height="631.191"/>
				</g>
				<g>
					
						<rect x="588.335" y="152.149" transform="matrix(0.0254 -0.9997 0.9997 0.0254 106.1157 1044.3308)" style="fill:#759086;" width="0.603" height="631.191"/>
				</g>
				<g>
					
						<rect x="586.939" y="207.184" transform="matrix(0.0254 -0.9997 0.9997 0.0254 49.7383 1096.5742)" style="fill:#759086;" width="0.603" height="631.191"/>
				</g>
				<g>
					
						<rect x="585.543" y="262.218" transform="matrix(0.0254 -0.9997 0.9997 0.0254 -6.6391 1148.8173)" style="fill:#759086;" width="0.603" height="631.191"/>
				</g>
				<g>
					
						<rect x="584.147" y="317.253" transform="matrix(0.0254 -0.9997 0.9997 0.0254 -63.0162 1201.0608)" style="fill:#759086;" width="0.603" height="631.191"/>
				</g>
				<g>
					
						<rect x="582.751" y="372.287" transform="matrix(0.0254 -0.9997 0.9997 0.0254 -119.3937 1253.3042)" style="fill:#759086;" width="0.602" height="631.191"/>
				</g>
				<g>
					
						<rect x="581.355" y="427.322" transform="matrix(0.0254 -0.9997 0.9997 0.0254 -175.7711 1305.5475)" style="fill:#759086;" width="0.602" height="631.191"/>
				</g>
				<g>
					
						<rect x="579.959" y="482.357" transform="matrix(0.0254 -0.9997 0.9997 0.0254 -232.1498 1357.7915)" style="fill:#759086;" width="0.603" height="631.191"/>
				</g>
				<g>
					
						<rect x="578.563" y="537.391" transform="matrix(0.0254 -0.9997 0.9997 0.0254 -288.5269 1410.0353)" style="fill:#759086;" width="0.603" height="631.191"/>
				</g>
				<g>
					
						<rect x="577.167" y="592.426" transform="matrix(0.0254 -0.9997 0.9997 0.0254 -344.9043 1462.2786)" style="fill:#759086;" width="0.603" height="631.191"/>
				</g>
			</g>
			<path style="opacity:0.8;fill:#FF876B;" d="M372.5,240.962c-5.941-6.641-12.85-12.316-18.856-18.893
				c-2.163-2.369-5.203-5.376-6.931-8.434L173.816,367.67c6.044,3.453,12.213,12.463,15.803,16.319
				c11.347,12.187,22.672,24.405,33.535,37.024l172.291-153.495C386.549,260.156,380.306,249.689,372.5,240.962z"/>
			<path style="opacity:0.8;fill:#FF876B;" d="M1016.934,329.547c2.423-8.575,3.511-17.45,5.844-26.045
				c0.84-3.096,1.751-7.274,3.406-10.372l-222.71-63.41c0.324,6.953-3.976,16.991-5.307,22.089
				c-4.207,16.112-8.453,32.221-13.283,48.155l221.929,63.187C1008.26,351.694,1013.751,340.814,1016.934,329.547z"/>
		</g>
	</g>
</g>
</svg>
